%TF.GenerationSoftware,KiCad,Pcbnew,10.0.2*%
%TF.CreationDate,2026-07-15T16:24:52+03:00*%
%TF.ProjectId,ATmega32_USART_Serial_Data_Monitor_System_v001,41546d65-6761-4333-925f-55534152545f,v001*%
%TF.SameCoordinates,Original*%
%TF.FileFunction,Soldermask,Bot*%
%TF.FilePolarity,Negative*%
%FSLAX46Y46*%
G04 Gerber Fmt 4.6, Leading zero omitted, Abs format (unit mm)*
G04 Created by KiCad (PCBNEW 10.0.2) date 2026-07-15 16:24:52*
%MOMM*%
%LPD*%
G01*
G04 APERTURE LIST*
G04 Aperture macros list*
%AMRoundRect*
0 Rectangle with rounded corners*
0 $1 Rounding radius*
0 $2 $3 $4 $5 $6 $7 $8 $9 X,Y pos of 4 corners*
0 Add a 4 corners polygon primitive as box body*
4,1,4,$2,$3,$4,$5,$6,$7,$8,$9,$2,$3,0*
0 Add four circle primitives for the rounded corners*
1,1,$1+$1,$2,$3*
1,1,$1+$1,$4,$5*
1,1,$1+$1,$6,$7*
1,1,$1+$1,$8,$9*
0 Add four rect primitives between the rounded corners*
20,1,$1+$1,$2,$3,$4,$5,0*
20,1,$1+$1,$4,$5,$6,$7,0*
20,1,$1+$1,$6,$7,$8,$9,0*
20,1,$1+$1,$8,$9,$2,$3,0*%
G04 Aperture macros list end*
%ADD10C,1.600000*%
%ADD11C,1.440000*%
%ADD12C,3.000000*%
%ADD13R,1.800000X2.600000*%
%ADD14O,1.800000X2.600000*%
%ADD15R,1.800000X1.800000*%
%ADD16C,1.800000*%
%ADD17RoundRect,0.250000X0.550000X-0.550000X0.550000X0.550000X-0.550000X0.550000X-0.550000X-0.550000X0*%
%ADD18C,2.000000*%
%ADD19C,1.500000*%
%ADD20R,1.700000X1.700000*%
%ADD21C,1.700000*%
G04 APERTURE END LIST*
D10*
%TO.C,R1*%
X188770000Y-103000000D03*
X181150000Y-103000000D03*
%TD*%
D11*
%TO.C,RV1*%
X168545000Y-145015000D03*
X166005000Y-145015000D03*
X163465000Y-145015000D03*
%TD*%
D12*
%TO.C,DS1*%
X169079100Y-80500000D03*
X169079100Y-49499300D03*
X94080520Y-49499300D03*
X94080000Y-80500000D03*
D13*
X163580000Y-80500000D03*
D14*
X161040000Y-80500000D03*
X158500000Y-80500000D03*
X155960000Y-80500000D03*
X153420000Y-80500000D03*
X150880000Y-80500000D03*
X148340000Y-80500000D03*
X145800000Y-80500000D03*
X143260000Y-80500000D03*
X140720000Y-80500000D03*
X138180000Y-80500000D03*
X135640000Y-80500000D03*
X133100000Y-80500000D03*
X130560000Y-80500000D03*
X128020000Y-80500000D03*
X125480000Y-80500000D03*
%TD*%
D15*
%TO.C,D1*%
X205460000Y-104040000D03*
D16*
X205460000Y-101500000D03*
%TD*%
D10*
%TO.C,C1*%
X142460000Y-145500000D03*
X147460000Y-145500000D03*
%TD*%
D17*
%TO.C,U1*%
X98045000Y-132225000D03*
D10*
X100585000Y-132225000D03*
X103125000Y-132225000D03*
X105665000Y-132225000D03*
X108205000Y-132225000D03*
X110745000Y-132225000D03*
X113285000Y-132225000D03*
X115825000Y-132225000D03*
X118365000Y-132225000D03*
X120905000Y-132225000D03*
X123445000Y-132225000D03*
X125985000Y-132225000D03*
X128525000Y-132225000D03*
X131065000Y-132225000D03*
X133605000Y-132225000D03*
X136145000Y-132225000D03*
X138685000Y-132225000D03*
X141225000Y-132225000D03*
X143765000Y-132225000D03*
X146305000Y-132225000D03*
X146305000Y-116985000D03*
X143765000Y-116985000D03*
X141225000Y-116985000D03*
X138685000Y-116985000D03*
X136145000Y-116985000D03*
X133605000Y-116985000D03*
X131065000Y-116985000D03*
X128525000Y-116985000D03*
X125985000Y-116985000D03*
X123445000Y-116985000D03*
X120905000Y-116985000D03*
X118365000Y-116985000D03*
X115825000Y-116985000D03*
X113285000Y-116985000D03*
X110745000Y-116985000D03*
X108205000Y-116985000D03*
X105665000Y-116985000D03*
X103125000Y-116985000D03*
X100585000Y-116985000D03*
X98045000Y-116985000D03*
%TD*%
D18*
%TO.C,SW2*%
X98210000Y-96250000D03*
X98210000Y-89750000D03*
X102710000Y-96250000D03*
X102710000Y-89750000D03*
%TD*%
D19*
%TO.C,Y1*%
X128900000Y-142500000D03*
X133780000Y-142500000D03*
%TD*%
D10*
%TO.C,C2*%
X142460000Y-138500000D03*
X147460000Y-138500000D03*
%TD*%
D18*
%TO.C,SW3*%
X106760000Y-96250000D03*
X106760000Y-89750000D03*
X111260000Y-96250000D03*
X111260000Y-89750000D03*
%TD*%
D10*
%TO.C,C4*%
X110960000Y-153000000D03*
X115960000Y-153000000D03*
%TD*%
D15*
%TO.C,D2*%
X204460000Y-95500000D03*
D16*
X204460000Y-92960000D03*
%TD*%
D10*
%TO.C,C3*%
X110960000Y-145500000D03*
X115960000Y-145500000D03*
%TD*%
D20*
%TO.C,J1*%
X159420000Y-108000000D03*
D21*
X161960000Y-108000000D03*
X164500000Y-108000000D03*
X167040000Y-108000000D03*
%TD*%
D18*
%TO.C,SW1*%
X89660000Y-96250000D03*
X89660000Y-89750000D03*
X94160000Y-96250000D03*
X94160000Y-89750000D03*
%TD*%
D10*
%TO.C,R2*%
X188770000Y-93000000D03*
X181150000Y-93000000D03*
%TD*%
%TO.C,R3*%
X103770000Y-140000000D03*
X96150000Y-140000000D03*
%TD*%
M02*
