M48
; DRILL file KiCad 10.0.2 date 2026-06-16T08:53:14
; FORMAT={-:-/ absolute / metric / decimal}
; #@! TF.CreationDate,2026-06-16T08:53:14+03:00
; #@! TF.GenerationSoftware,Kicad,Pcbnew,10.0.2
; #@! TF.FileFunction,Plated,1,2,PTH
FMAT,2
METRIC
; #@! TA.AperFunction,Plated,PTH,ComponentDrill
T1C0.800
; #@! TA.AperFunction,Plated,PTH,ComponentDrill
T2C0.900
; #@! TA.AperFunction,Plated,PTH,ComponentDrill
T3C1.000
; #@! TA.AperFunction,Plated,PTH,ComponentDrill
T4C1.100
%
G90
G05
T1
X113.19Y-85.5
X120.81Y-85.5
X125.0Y-91.0
X125.0Y-95.05
X129.98Y-67.5
X129.98Y-82.74
X130.0Y-91.0
X130.0Y-95.05
X132.52Y-67.5
X132.52Y-82.74
X135.06Y-67.5
X135.06Y-82.74
X137.6Y-67.5
X137.6Y-82.74
X140.0Y-57.0
X140.14Y-67.5
X140.14Y-82.74
X142.68Y-67.5
X142.68Y-82.74
X145.0Y-57.0
X145.22Y-67.5
X145.22Y-82.74
X147.76Y-67.5
X147.76Y-82.74
X150.3Y-67.5
X150.3Y-82.74
X152.84Y-67.5
X152.84Y-82.74
X155.38Y-67.5
X155.38Y-82.74
X156.5Y-57.0
X157.92Y-67.5
X157.92Y-82.74
X160.46Y-67.5
X160.46Y-82.74
X161.38Y-57.0
X163.0Y-67.5
X163.0Y-82.74
X163.0Y-106.5
X163.69Y-113.0
X165.54Y-67.5
X165.54Y-82.74
X168.08Y-67.5
X168.08Y-82.74
X170.62Y-67.5
X170.62Y-82.74
X170.62Y-106.5
X171.31Y-113.0
X172.0Y-56.0
X173.16Y-67.5
X173.16Y-82.74
X175.7Y-67.5
X175.7Y-82.74
X177.0Y-56.0
X178.24Y-67.5
X178.24Y-82.74
T2
X178.46Y-105.0
X178.96Y-112.5
X181.0Y-105.0
X181.5Y-112.5
T3
X110.5Y-103.42
X110.5Y-105.96
X110.5Y-108.5
X110.5Y-111.04
T4
X111.5Y-33.0
X111.5Y-37.5
X111.75Y-41.2
X111.75Y-45.7
X111.75Y-49.75
X111.75Y-54.25
X111.75Y-58.3
X111.75Y-62.8
X111.75Y-66.85
X111.75Y-71.35
X118.0Y-33.0
X118.0Y-37.5
X118.25Y-41.2
X118.25Y-45.7
X118.25Y-49.75
X118.25Y-54.25
X118.25Y-58.3
X118.25Y-62.8
X118.25Y-66.85
X118.25Y-71.35
M30
