%TF.GenerationSoftware,KiCad,Pcbnew,10.0.2*%
%TF.CreationDate,2026-06-16T08:53:05+03:00*%
%TF.ProjectId,ATmega32_USART_Serial_Data_Monitor_System_v001,41546d65-6761-4333-925f-55534152545f,v001*%
%TF.SameCoordinates,Original*%
%TF.FileFunction,Copper,L1,Top*%
%TF.FilePolarity,Positive*%
%FSLAX46Y46*%
G04 Gerber Fmt 4.6, Leading zero omitted, Abs format (unit mm)*
G04 Created by KiCad (PCBNEW 10.0.2) date 2026-06-16 08:53:05*
%MOMM*%
%LPD*%
G01*
G04 APERTURE LIST*
G04 Aperture macros list*
%AMRoundRect*
0 Rectangle with rounded corners*
0 $1 Rounding radius*
0 $2 $3 $4 $5 $6 $7 $8 $9 X,Y pos of 4 corners*
0 Add a 4 corners polygon primitive as box body*
4,1,4,$2,$3,$4,$5,$6,$7,$8,$9,$2,$3,0*
0 Add four circle primitives for the rounded corners*
1,1,$1+$1,$2,$3*
1,1,$1+$1,$4,$5*
1,1,$1+$1,$6,$7*
1,1,$1+$1,$8,$9*
0 Add four rect primitives between the rounded corners*
20,1,$1+$1,$2,$3,$4,$5,0*
20,1,$1+$1,$4,$5,$6,$7,0*
20,1,$1+$1,$6,$7,$8,$9,0*
20,1,$1+$1,$8,$9,$2,$3,0*%
G04 Aperture macros list end*
%TA.AperFunction,ComponentPad*%
%ADD10R,1.800000X1.800000*%
%TD*%
%TA.AperFunction,ComponentPad*%
%ADD11C,1.800000*%
%TD*%
%TA.AperFunction,ComponentPad*%
%ADD12C,1.500000*%
%TD*%
%TA.AperFunction,ComponentPad*%
%ADD13C,1.600000*%
%TD*%
%TA.AperFunction,ComponentPad*%
%ADD14C,2.000000*%
%TD*%
%TA.AperFunction,ComponentPad*%
%ADD15R,1.700000X1.700000*%
%TD*%
%TA.AperFunction,ComponentPad*%
%ADD16C,1.700000*%
%TD*%
%TA.AperFunction,ComponentPad*%
%ADD17RoundRect,0.250000X0.550000X-0.550000X0.550000X0.550000X-0.550000X0.550000X-0.550000X-0.550000X0*%
%TD*%
%TA.AperFunction,Conductor*%
%ADD18C,0.200000*%
%TD*%
G04 APERTURE END LIST*
D10*
%TO.P,D2,1,K_1*%
%TO.N,GND*%
X178960000Y-112500000D03*
D11*
%TO.P,D2,2,A_2*%
%TO.N,Net-(D2-A)*%
X181500000Y-112500000D03*
%TD*%
D12*
%TO.P,Y1,2,2_2*%
%TO.N,Net-(U1-XTAL1)*%
X161380000Y-57000000D03*
%TO.P,Y1,1,1_1*%
%TO.N,Net-(U1-XTAL2)*%
X156500000Y-57000000D03*
%TD*%
D11*
%TO.P,D1,2,A_2*%
%TO.N,GND*%
X181000000Y-105000000D03*
D10*
%TO.P,D1,1,K_1*%
%TO.N,Net-(D1-K)*%
X178460000Y-105000000D03*
%TD*%
D13*
%TO.P,C3,1*%
%TO.N,VCC*%
X125000000Y-91000000D03*
%TO.P,C3,2*%
%TO.N,GND*%
X130000000Y-91000000D03*
%TD*%
D14*
%TO.P,SW3,1,1_1*%
%TO.N,Net-(U1-PA2)*%
X111750000Y-49750000D03*
X118250000Y-49750000D03*
%TO.P,SW3,2,2_2*%
%TO.N,GND*%
X111750000Y-54250000D03*
X118250000Y-54250000D03*
%TD*%
%TO.P,SW5,1,1_1*%
%TO.N,Net-(SW4-Pad1)*%
X111750000Y-66850000D03*
X118250000Y-66850000D03*
%TO.P,SW5,2,2_2*%
%TO.N,GND*%
X111750000Y-71350000D03*
X118250000Y-71350000D03*
%TD*%
%TO.P,SW4,1,1_1*%
%TO.N,Net-(SW4-Pad1)*%
X111750000Y-58300000D03*
X118250000Y-58300000D03*
%TO.P,SW4,2,2_2*%
%TO.N,VCC*%
X111750000Y-62800000D03*
X118250000Y-62800000D03*
%TD*%
D15*
%TO.P,J1,1,Pin_1_1*%
%TO.N,VCC*%
X110500000Y-103420000D03*
D16*
%TO.P,J1,2,Pin_2_2*%
%TO.N,Net-(J1-Pin_2)*%
X110500000Y-105960000D03*
%TO.P,J1,3,Pin_3_3*%
%TO.N,Net-(J1-Pin_3)*%
X110500000Y-108500000D03*
%TO.P,J1,4,Pin_4_4*%
%TO.N,GND*%
X110500000Y-111040000D03*
%TD*%
D13*
%TO.P,C1,1*%
%TO.N,Net-(U1-XTAL2)*%
X140000000Y-57000000D03*
%TO.P,C1,2*%
%TO.N,GND*%
X145000000Y-57000000D03*
%TD*%
D17*
%TO.P,U1,1,PB0_1*%
%TO.N,unconnected-(U1-PB0-Pad1)*%
X129980000Y-82740000D03*
D13*
%TO.P,U1,2,PB1_2*%
%TO.N,Net-(U1-PB1)*%
X132520000Y-82740000D03*
%TO.P,U1,3,PB2_3*%
%TO.N,Net-(U1-PB2)*%
X135060000Y-82740000D03*
%TO.P,U1,4,PB3_4*%
%TO.N,unconnected-(U1-PB3-Pad4)*%
X137600000Y-82740000D03*
%TO.P,U1,5,PB4_5*%
%TO.N,unconnected-(U1-PB4-Pad5)*%
X140140000Y-82740000D03*
%TO.P,U1,6,PB5_6*%
%TO.N,unconnected-(U1-PB5-Pad6)*%
X142680000Y-82740000D03*
%TO.P,U1,7,PB6_7*%
%TO.N,unconnected-(U1-PB6-Pad7)*%
X145220000Y-82740000D03*
%TO.P,U1,8,PB7_8*%
%TO.N,unconnected-(U1-PB7-Pad8)*%
X147760000Y-82740000D03*
%TO.P,U1,9,~{RESET}_9*%
%TO.N,Net-(U1-~{RESET})*%
X150300000Y-82740000D03*
%TO.P,U1,10,VCC_10*%
%TO.N,VCC*%
X152840000Y-82740000D03*
%TO.P,U1,11,GND_11*%
%TO.N,GND*%
X155380000Y-82740000D03*
%TO.P,U1,12,XTAL2_12*%
%TO.N,Net-(U1-XTAL2)*%
X157920000Y-82740000D03*
%TO.P,U1,13,XTAL1_13*%
%TO.N,Net-(U1-XTAL1)*%
X160460000Y-82740000D03*
%TO.P,U1,14,PD0_14*%
%TO.N,Net-(J1-Pin_2)*%
X163000000Y-82740000D03*
%TO.P,U1,15,PD1_15*%
%TO.N,Net-(J1-Pin_3)*%
X165540000Y-82740000D03*
%TO.P,U1,16,PD2_16*%
%TO.N,unconnected-(U1-PD2-Pad16)*%
X168080000Y-82740000D03*
%TO.P,U1,17,PD3_17*%
%TO.N,unconnected-(U1-PD3-Pad17)*%
X170620000Y-82740000D03*
%TO.P,U1,18,PD4_18*%
%TO.N,unconnected-(U1-PD4-Pad18)*%
X173160000Y-82740000D03*
%TO.P,U1,19,PD5_19*%
%TO.N,unconnected-(U1-PD5-Pad19)*%
X175700000Y-82740000D03*
%TO.P,U1,20,PD6_20*%
%TO.N,unconnected-(U1-PD6-Pad20)*%
X178240000Y-82740000D03*
%TO.P,U1,21,PD7_21*%
%TO.N,unconnected-(U1-PD7-Pad21)*%
X178240000Y-67500000D03*
%TO.P,U1,22,PC0_22*%
%TO.N,unconnected-(U1-PC0-Pad22)*%
X175700000Y-67500000D03*
%TO.P,U1,23,PC1_23*%
%TO.N,unconnected-(U1-PC1-Pad23)*%
X173160000Y-67500000D03*
%TO.P,U1,24,PC2_24*%
%TO.N,unconnected-(U1-PC2-Pad24)*%
X170620000Y-67500000D03*
%TO.P,U1,25,PC3_25*%
%TO.N,unconnected-(U1-PC3-Pad25)*%
X168080000Y-67500000D03*
%TO.P,U1,26,PC4_26*%
%TO.N,unconnected-(U1-PC4-Pad26)*%
X165540000Y-67500000D03*
%TO.P,U1,27,PC5_27*%
%TO.N,unconnected-(U1-PC5-Pad27)*%
X163000000Y-67500000D03*
%TO.P,U1,28,PC6_28*%
%TO.N,unconnected-(U1-PC6-Pad28)*%
X160460000Y-67500000D03*
%TO.P,U1,29,PC7_29*%
%TO.N,unconnected-(U1-PC7-Pad29)*%
X157920000Y-67500000D03*
%TO.P,U1,30,AVCC_30*%
%TO.N,VCC*%
X155380000Y-67500000D03*
%TO.P,U1,31,GND_31*%
%TO.N,GND*%
X152840000Y-67500000D03*
%TO.P,U1,32,AREF_32*%
%TO.N,unconnected-(U1-AREF-Pad32)*%
X150300000Y-67500000D03*
%TO.P,U1,33,PA7_33*%
%TO.N,unconnected-(U1-PA7-Pad33)*%
X147760000Y-67500000D03*
%TO.P,U1,34,PA6_34*%
%TO.N,unconnected-(U1-PA6-Pad34)*%
X145220000Y-67500000D03*
%TO.P,U1,35,PA5_35*%
%TO.N,unconnected-(U1-PA5-Pad35)*%
X142680000Y-67500000D03*
%TO.P,U1,36,PA4_36*%
%TO.N,unconnected-(U1-PA4-Pad36)*%
X140140000Y-67500000D03*
%TO.P,U1,37,PA3_37*%
%TO.N,unconnected-(U1-PA3-Pad37)*%
X137600000Y-67500000D03*
%TO.P,U1,38,PA2_38*%
%TO.N,Net-(U1-PA2)*%
X135060000Y-67500000D03*
%TO.P,U1,39,PA1_39*%
%TO.N,Net-(U1-PA1)*%
X132520000Y-67500000D03*
%TO.P,U1,40,PA0_40*%
%TO.N,Net-(U1-PA0)*%
X129980000Y-67500000D03*
%TD*%
%TO.P,C2,1*%
%TO.N,Net-(U1-XTAL1)*%
X172000000Y-56000000D03*
%TO.P,C2,2*%
%TO.N,GND*%
X177000000Y-56000000D03*
%TD*%
%TO.P,R1,1*%
%TO.N,Net-(U1-PB1)*%
X163000000Y-106500000D03*
%TO.P,R1,2*%
%TO.N,Net-(D1-K)*%
X170620000Y-106500000D03*
%TD*%
D14*
%TO.P,SW1,1,1_1*%
%TO.N,Net-(U1-PA0)*%
X111500000Y-33000000D03*
X118000000Y-33000000D03*
%TO.P,SW1,2,2_2*%
%TO.N,GND*%
X111500000Y-37500000D03*
X118000000Y-37500000D03*
%TD*%
%TO.P,SW2,1,1_1*%
%TO.N,Net-(U1-PA1)*%
X111750000Y-41200000D03*
X118250000Y-41200000D03*
%TO.P,SW2,2,2_2*%
%TO.N,GND*%
X111750000Y-45700000D03*
X118250000Y-45700000D03*
%TD*%
D13*
%TO.P,C4,1*%
%TO.N,VCC*%
X125000000Y-95050000D03*
%TO.P,C4,2*%
%TO.N,GND*%
X130000000Y-95050000D03*
%TD*%
%TO.P,R2,1*%
%TO.N,Net-(U1-PB2)*%
X163690000Y-113000000D03*
%TO.P,R2,2*%
%TO.N,Net-(D2-A)*%
X171310000Y-113000000D03*
%TD*%
%TO.P,R3,1*%
%TO.N,VCC*%
X113190000Y-85500000D03*
%TO.P,R3,2*%
%TO.N,Net-(U1-~{RESET})*%
X120810000Y-85500000D03*
%TD*%
%TO.N,GND*%
D18*
X152840000Y-80200000D02*
X155380000Y-82740000D01*
X152840000Y-67500000D02*
X152840000Y-80200000D01*
X178960000Y-107540000D02*
X178960000Y-112500000D01*
X181000000Y-105500000D02*
X178960000Y-107540000D01*
X181000000Y-105000000D02*
X181000000Y-105500000D01*
X155380000Y-70824365D02*
X155380000Y-82740000D01*
X142655635Y-58100000D02*
X155380000Y-70824365D01*
X139544365Y-58100000D02*
X142655635Y-58100000D01*
X138900000Y-57455635D02*
X139544365Y-58100000D01*
X138900000Y-56544365D02*
X138900000Y-57455635D01*
X140544365Y-54900000D02*
X138900000Y-56544365D01*
X172455635Y-54900000D02*
X140544365Y-54900000D01*
X181000000Y-63444365D02*
X172455635Y-54900000D01*
X181000000Y-105000000D02*
X181000000Y-63444365D01*
X138900000Y-57455635D02*
X146284365Y-64840000D01*
X146284365Y-64840000D02*
X152840000Y-64840000D01*
X175900000Y-54900000D02*
X140544365Y-54900000D01*
X177000000Y-56000000D02*
X175900000Y-54900000D01*
%TO.N,Net-(D1-K)*%
X176500000Y-106500000D02*
X170620000Y-106500000D01*
X178000000Y-105000000D02*
X176500000Y-106500000D01*
X178460000Y-105000000D02*
X178000000Y-105000000D01*
%TO.N,Net-(SW4-Pad1)*%
X110450000Y-59600000D02*
X110450000Y-65550000D01*
X110450000Y-65550000D02*
X111750000Y-66850000D01*
X111750000Y-58300000D02*
X110450000Y-59600000D01*
%TO.N,VCC*%
X152840000Y-82160000D02*
X152960000Y-82040000D01*
X152840000Y-82740000D02*
X152840000Y-82160000D01*
%TO.N,Net-(U1-PA1)*%
X132520000Y-66020000D02*
X132520000Y-67500000D01*
X110450000Y-50288478D02*
X111211522Y-51050000D01*
X110450000Y-49000000D02*
X110450000Y-50288478D01*
X111211522Y-51050000D02*
X117550000Y-51050000D01*
X117550000Y-51050000D02*
X132520000Y-66020000D01*
X118250000Y-41200000D02*
X110450000Y-49000000D01*
X111750000Y-41200000D02*
X118250000Y-41200000D01*
%TO.N,Net-(U1-PA0)*%
X118000000Y-33000000D02*
X111500000Y-33000000D01*
X136160000Y-51160000D02*
X118000000Y-33000000D01*
X136160000Y-67955635D02*
X136160000Y-51160000D01*
X135515635Y-68600000D02*
X136160000Y-67955635D01*
X131080000Y-68600000D02*
X135515635Y-68600000D01*
X129980000Y-67500000D02*
X131080000Y-68600000D01*
%TO.N,GND*%
X111750000Y-71350000D02*
X118250000Y-71350000D01*
%TO.N,Net-(SW4-Pad1)*%
X111750000Y-66850000D02*
X118250000Y-66850000D01*
%TO.N,Net-(U1-PA2)*%
X118250000Y-50690000D02*
X135060000Y-67500000D01*
X118250000Y-49750000D02*
X118250000Y-50690000D01*
X118250000Y-49750000D02*
X111750000Y-49750000D01*
%TO.N,GND*%
X111750000Y-54250000D02*
X110050000Y-55950000D01*
X110050000Y-55950000D02*
X110050000Y-69650000D01*
X110050000Y-69650000D02*
X111750000Y-71350000D01*
%TO.N,Net-(SW4-Pad1)*%
X111750000Y-58300000D02*
X118250000Y-58300000D01*
%TO.N,GND*%
X111750000Y-54250000D02*
X118250000Y-54250000D01*
%TO.N,VCC*%
X113190000Y-84800000D02*
X112900051Y-84800000D01*
X113190000Y-85500000D02*
X113190000Y-84800000D01*
%TO.N,Net-(U1-PB1)*%
X164790000Y-108290000D02*
X163000000Y-106500000D01*
X164790000Y-113455635D02*
X164790000Y-108290000D01*
X164145635Y-114100000D02*
X164790000Y-113455635D01*
X110802282Y-114100000D02*
X164145635Y-114100000D01*
X108550000Y-111847718D02*
X110802282Y-114100000D01*
X108550000Y-88018680D02*
X108550000Y-111847718D01*
X112568679Y-84000000D02*
X108550000Y-88018680D01*
X131260000Y-84000000D02*
X112568679Y-84000000D01*
X132520000Y-82740000D02*
X131260000Y-84000000D01*
%TO.N,Net-(U1-PB2)*%
X110267968Y-113000000D02*
X163690000Y-113000000D01*
X108950000Y-111682032D02*
X110267968Y-113000000D01*
X108950000Y-88184365D02*
X108950000Y-111682032D01*
X112734365Y-84400000D02*
X108950000Y-88184365D01*
X135060000Y-82740000D02*
X133400000Y-84400000D01*
X133400000Y-84400000D02*
X112734365Y-84400000D01*
%TO.N,Net-(D2-A)*%
X172109999Y-113799999D02*
X180200001Y-113799999D01*
X171310000Y-113000000D02*
X172109999Y-113799999D01*
X180200001Y-113799999D02*
X181500000Y-112500000D01*
%TO.N,GND*%
X152840000Y-65000000D02*
X152840000Y-64840000D01*
X152840000Y-64840000D02*
X145000000Y-57000000D01*
%TO.N,Net-(J1-Pin_3)*%
X109350000Y-111516346D02*
X109350000Y-109650000D01*
X110023654Y-112190000D02*
X109350000Y-111516346D01*
X136090000Y-112190000D02*
X110023654Y-112190000D01*
X109350000Y-109650000D02*
X110500000Y-108500000D01*
X165540000Y-82740000D02*
X136090000Y-112190000D01*
%TO.N,Net-(J1-Pin_2)*%
X115645635Y-105960000D02*
X110500000Y-105960000D01*
X126100000Y-95505635D02*
X115645635Y-105960000D01*
X135604365Y-83840000D02*
X126100000Y-93344365D01*
X126100000Y-93344365D02*
X126100000Y-95505635D01*
X163000000Y-82740000D02*
X161900000Y-83840000D01*
X161900000Y-83840000D02*
X135604365Y-83840000D01*
%TO.N,VCC*%
X110500000Y-99190000D02*
X118690000Y-91000000D01*
X110500000Y-103420000D02*
X110500000Y-99190000D01*
%TO.N,GND*%
X114010000Y-111040000D02*
X110500000Y-111040000D01*
X130000000Y-95050000D02*
X114010000Y-111040000D01*
X130000000Y-91000000D02*
X130000000Y-95050000D01*
%TO.N,VCC*%
X125000000Y-91000000D02*
X125000000Y-95050000D01*
X118690000Y-91000000D02*
X113190000Y-85500000D01*
X125000000Y-91000000D02*
X118690000Y-91000000D01*
%TO.N,Net-(U1-XTAL1)*%
X161560000Y-81640000D02*
X160460000Y-82740000D01*
X161560000Y-57180000D02*
X161560000Y-81640000D01*
X161380000Y-57000000D02*
X161560000Y-57180000D01*
%TO.N,Net-(U1-XTAL2)*%
X156500000Y-81320000D02*
X157920000Y-82740000D01*
X156500000Y-57000000D02*
X156500000Y-81320000D01*
%TO.N,Net-(U1-XTAL1)*%
X171000000Y-57000000D02*
X172000000Y-56000000D01*
X161380000Y-57000000D02*
X171000000Y-57000000D01*
%TO.N,Net-(U1-XTAL2)*%
X141100000Y-55900000D02*
X140000000Y-57000000D01*
X155400000Y-55900000D02*
X141100000Y-55900000D01*
X156500000Y-57000000D02*
X155400000Y-55900000D01*
%TO.N,GND*%
X152840000Y-67500000D02*
X152840000Y-65000000D01*
%TD*%
M02*
