%TF.GenerationSoftware,KiCad,Pcbnew,10.0.2*%
%TF.CreationDate,2026-07-01T16:26:16+03:00*%
%TF.ProjectId,ATmega32_USART_Serial_Data_Monitor_System_v001,41546d65-6761-4333-925f-55534152545f,v001*%
%TF.SameCoordinates,Original*%
%TF.FileFunction,Soldermask,Bot*%
%TF.FilePolarity,Negative*%
%FSLAX46Y46*%
G04 Gerber Fmt 4.6, Leading zero omitted, Abs format (unit mm)*
G04 Created by KiCad (PCBNEW 10.0.2) date 2026-07-01 16:26:16*
%MOMM*%
%LPD*%
G01*
G04 APERTURE LIST*
G04 Aperture macros list*
%AMRoundRect*
0 Rectangle with rounded corners*
0 $1 Rounding radius*
0 $2 $3 $4 $5 $6 $7 $8 $9 X,Y pos of 4 corners*
0 Add a 4 corners polygon primitive as box body*
4,1,4,$2,$3,$4,$5,$6,$7,$8,$9,$2,$3,0*
0 Add four circle primitives for the rounded corners*
1,1,$1+$1,$2,$3*
1,1,$1+$1,$4,$5*
1,1,$1+$1,$6,$7*
1,1,$1+$1,$8,$9*
0 Add four rect primitives between the rounded corners*
20,1,$1+$1,$2,$3,$4,$5,0*
20,1,$1+$1,$4,$5,$6,$7,0*
20,1,$1+$1,$6,$7,$8,$9,0*
20,1,$1+$1,$8,$9,$2,$3,0*%
G04 Aperture macros list end*
%ADD10C,1.600000*%
%ADD11C,2.000000*%
%ADD12R,1.700000X1.700000*%
%ADD13C,1.700000*%
%ADD14R,1.800000X1.800000*%
%ADD15C,1.800000*%
%ADD16RoundRect,0.250000X0.550000X-0.550000X0.550000X0.550000X-0.550000X0.550000X-0.550000X-0.550000X0*%
%ADD17C,1.500000*%
G04 APERTURE END LIST*
D10*
%TO.C,C3*%
X124015000Y-127015000D03*
X129015000Y-127015000D03*
%TD*%
%TO.C,R2*%
X148325000Y-72015000D03*
X140705000Y-72015000D03*
%TD*%
D11*
%TO.C,SW1*%
X102715000Y-77765000D03*
X102715000Y-71265000D03*
X107215000Y-77765000D03*
X107215000Y-71265000D03*
%TD*%
D12*
%TO.C,J1*%
X147935000Y-90015000D03*
D13*
X150475000Y-90015000D03*
X153015000Y-90015000D03*
X155555000Y-90015000D03*
%TD*%
D10*
%TO.C,C1*%
X155515000Y-127015000D03*
X160515000Y-127015000D03*
%TD*%
D11*
%TO.C,SW3*%
X119815000Y-77765000D03*
X119815000Y-71265000D03*
X124315000Y-77765000D03*
X124315000Y-71265000D03*
%TD*%
D10*
%TO.C,C4*%
X124015000Y-134515000D03*
X129015000Y-134515000D03*
%TD*%
D11*
%TO.C,SW2*%
X111265000Y-77765000D03*
X111265000Y-71265000D03*
X115765000Y-77765000D03*
X115765000Y-71265000D03*
%TD*%
D14*
%TO.C,D2*%
X164015000Y-74515000D03*
D15*
X164015000Y-71975000D03*
%TD*%
D14*
%TO.C,D1*%
X165015000Y-83055000D03*
D15*
X165015000Y-80515000D03*
%TD*%
D10*
%TO.C,C2*%
X155515000Y-120015000D03*
X160515000Y-120015000D03*
%TD*%
D16*
%TO.C,U1*%
X111100000Y-113740000D03*
D10*
X113640000Y-113740000D03*
X116180000Y-113740000D03*
X118720000Y-113740000D03*
X121260000Y-113740000D03*
X123800000Y-113740000D03*
X126340000Y-113740000D03*
X128880000Y-113740000D03*
X131420000Y-113740000D03*
X133960000Y-113740000D03*
X136500000Y-113740000D03*
X139040000Y-113740000D03*
X141580000Y-113740000D03*
X144120000Y-113740000D03*
X146660000Y-113740000D03*
X149200000Y-113740000D03*
X151740000Y-113740000D03*
X154280000Y-113740000D03*
X156820000Y-113740000D03*
X159360000Y-113740000D03*
X159360000Y-98500000D03*
X156820000Y-98500000D03*
X154280000Y-98500000D03*
X151740000Y-98500000D03*
X149200000Y-98500000D03*
X146660000Y-98500000D03*
X144120000Y-98500000D03*
X141580000Y-98500000D03*
X139040000Y-98500000D03*
X136500000Y-98500000D03*
X133960000Y-98500000D03*
X131420000Y-98500000D03*
X128880000Y-98500000D03*
X126340000Y-98500000D03*
X123800000Y-98500000D03*
X121260000Y-98500000D03*
X118720000Y-98500000D03*
X116180000Y-98500000D03*
X113640000Y-98500000D03*
X111100000Y-98500000D03*
%TD*%
D17*
%TO.C,Y1*%
X141955000Y-124015000D03*
X146835000Y-124015000D03*
%TD*%
D10*
%TO.C,R3*%
X116825000Y-121515000D03*
X109205000Y-121515000D03*
%TD*%
%TO.C,R1*%
X148325000Y-82015000D03*
X140705000Y-82015000D03*
%TD*%
M02*
