M48
; DRILL file KiCad 10.0.2 date 2026-07-15T16:24:58
; FORMAT={-:-/ absolute / metric / decimal}
; #@! TF.CreationDate,2026-07-15T16:24:58+03:00
; #@! TF.GenerationSoftware,Kicad,Pcbnew,10.0.2
; #@! TF.FileFunction,Plated,1,2,PTH
FMAT,2
METRIC
; #@! TA.AperFunction,Plated,PTH,ComponentDrill
T1C0.800
; #@! TA.AperFunction,Plated,PTH,ComponentDrill
T2C0.900
; #@! TA.AperFunction,Plated,PTH,ComponentDrill
T3C1.000
; #@! TA.AperFunction,Plated,PTH,ComponentDrill
T4C1.100
; #@! TA.AperFunction,Plated,PTH,ComponentDrill
T5C1.200
; #@! TA.AperFunction,Plated,PTH,ComponentDrill
T6C2.500
%
G90
G05
T1
X96.15Y-140.0
X98.045Y-116.985
X98.045Y-132.225
X100.585Y-116.985
X100.585Y-132.225
X103.125Y-116.985
X103.125Y-132.225
X103.77Y-140.0
X105.665Y-116.985
X105.665Y-132.225
X108.205Y-116.985
X108.205Y-132.225
X110.745Y-116.985
X110.745Y-132.225
X110.96Y-145.5
X110.96Y-153.0
X113.285Y-116.985
X113.285Y-132.225
X115.825Y-116.985
X115.825Y-132.225
X115.96Y-145.5
X115.96Y-153.0
X118.365Y-116.985
X118.365Y-132.225
X120.905Y-116.985
X120.905Y-132.225
X123.445Y-116.985
X123.445Y-132.225
X125.985Y-116.985
X125.985Y-132.225
X128.525Y-116.985
X128.525Y-132.225
X128.9Y-142.5
X131.065Y-116.985
X131.065Y-132.225
X133.605Y-116.985
X133.605Y-132.225
X133.78Y-142.5
X136.145Y-116.985
X136.145Y-132.225
X138.685Y-116.985
X138.685Y-132.225
X141.225Y-116.985
X141.225Y-132.225
X142.46Y-138.5
X142.46Y-145.5
X143.765Y-116.985
X143.765Y-132.225
X146.305Y-116.985
X146.305Y-132.225
X147.46Y-138.5
X147.46Y-145.5
X163.465Y-145.015
X166.005Y-145.015
X168.545Y-145.015
X181.15Y-93.0
X181.15Y-103.0
X188.77Y-93.0
X188.77Y-103.0
T2
X204.46Y-92.96
X204.46Y-95.5
X205.46Y-101.5
X205.46Y-104.04
T3
X159.42Y-108.0
X161.96Y-108.0
X164.5Y-108.0
X167.04Y-108.0
T4
X89.66Y-89.75
X89.66Y-96.25
X94.16Y-89.75
X94.16Y-96.25
X98.21Y-89.75
X98.21Y-96.25
X102.71Y-89.75
X102.71Y-96.25
X106.76Y-89.75
X106.76Y-96.25
X111.26Y-89.75
X111.26Y-96.25
T5
X125.48Y-80.5
X128.02Y-80.5
X130.56Y-80.5
X133.1Y-80.5
X135.64Y-80.5
X138.18Y-80.5
X140.72Y-80.5
X143.26Y-80.5
X145.8Y-80.5
X148.34Y-80.5
X150.88Y-80.5
X153.42Y-80.5
X155.96Y-80.5
X158.5Y-80.5
X161.04Y-80.5
X163.58Y-80.5
T6
X94.08Y-80.5
X94.081Y-49.499
X169.079Y-49.499
X169.079Y-80.5
M30
