%TF.GenerationSoftware,KiCad,Pcbnew,10.0.2*%
%TF.CreationDate,2026-07-15T16:24:52+03:00*%
%TF.ProjectId,ATmega32_USART_Serial_Data_Monitor_System_v001,41546d65-6761-4333-925f-55534152545f,v001*%
%TF.SameCoordinates,Original*%
%TF.FileFunction,Copper,L2,Bot*%
%TF.FilePolarity,Positive*%
%FSLAX46Y46*%
G04 Gerber Fmt 4.6, Leading zero omitted, Abs format (unit mm)*
G04 Created by KiCad (PCBNEW 10.0.2) date 2026-07-15 16:24:52*
%MOMM*%
%LPD*%
G01*
G04 APERTURE LIST*
G04 Aperture macros list*
%AMRoundRect*
0 Rectangle with rounded corners*
0 $1 Rounding radius*
0 $2 $3 $4 $5 $6 $7 $8 $9 X,Y pos of 4 corners*
0 Add a 4 corners polygon primitive as box body*
4,1,4,$2,$3,$4,$5,$6,$7,$8,$9,$2,$3,0*
0 Add four circle primitives for the rounded corners*
1,1,$1+$1,$2,$3*
1,1,$1+$1,$4,$5*
1,1,$1+$1,$6,$7*
1,1,$1+$1,$8,$9*
0 Add four rect primitives between the rounded corners*
20,1,$1+$1,$2,$3,$4,$5,0*
20,1,$1+$1,$4,$5,$6,$7,0*
20,1,$1+$1,$6,$7,$8,$9,0*
20,1,$1+$1,$8,$9,$2,$3,0*%
G04 Aperture macros list end*
%TA.AperFunction,ComponentPad*%
%ADD10C,1.600000*%
%TD*%
%TA.AperFunction,ComponentPad*%
%ADD11C,1.440000*%
%TD*%
%TA.AperFunction,ComponentPad*%
%ADD12C,3.000000*%
%TD*%
%TA.AperFunction,ComponentPad*%
%ADD13R,1.800000X2.600000*%
%TD*%
%TA.AperFunction,ComponentPad*%
%ADD14O,1.800000X2.600000*%
%TD*%
%TA.AperFunction,ComponentPad*%
%ADD15R,1.800000X1.800000*%
%TD*%
%TA.AperFunction,ComponentPad*%
%ADD16C,1.800000*%
%TD*%
%TA.AperFunction,ComponentPad*%
%ADD17RoundRect,0.250000X0.550000X-0.550000X0.550000X0.550000X-0.550000X0.550000X-0.550000X-0.550000X0*%
%TD*%
%TA.AperFunction,ComponentPad*%
%ADD18C,2.000000*%
%TD*%
%TA.AperFunction,ComponentPad*%
%ADD19C,1.500000*%
%TD*%
%TA.AperFunction,ComponentPad*%
%ADD20R,1.700000X1.700000*%
%TD*%
%TA.AperFunction,ComponentPad*%
%ADD21C,1.700000*%
%TD*%
%TA.AperFunction,Conductor*%
%ADD22C,0.200000*%
%TD*%
G04 APERTURE END LIST*
D10*
%TO.P,R1,1*%
%TO.N,Net-(U1-PB1)*%
X188770000Y-103000000D03*
%TO.P,R1,2*%
%TO.N,Net-(D1-A)*%
X181150000Y-103000000D03*
%TD*%
D11*
%TO.P,RV1,1,1_1*%
%TO.N,VCC*%
X168545000Y-145015000D03*
%TO.P,RV1,2,2_2*%
%TO.N,Net-(DS1-VO)*%
X166005000Y-145015000D03*
%TO.P,RV1,3,3_3*%
%TO.N,GND*%
X163465000Y-145015000D03*
%TD*%
D12*
%TO.P,DS1,*%
%TO.N,*%
X169079100Y-80500000D03*
X169079100Y-49499300D03*
X94080520Y-49499300D03*
X94080000Y-80500000D03*
D13*
%TO.P,DS1,1,VSS_1*%
%TO.N,GND*%
X163580000Y-80500000D03*
D14*
%TO.P,DS1,2,VDD_2*%
%TO.N,VCC*%
X161040000Y-80500000D03*
%TO.P,DS1,3,VO_3*%
%TO.N,Net-(DS1-VO)*%
X158500000Y-80500000D03*
%TO.P,DS1,4,RS_4*%
%TO.N,Net-(DS1-RS)*%
X155960000Y-80500000D03*
%TO.P,DS1,5,R/W_5*%
%TO.N,GND*%
X153420000Y-80500000D03*
%TO.P,DS1,6,E_6*%
%TO.N,Net-(DS1-E)*%
X150880000Y-80500000D03*
%TO.P,DS1,7,D0_7*%
%TO.N,unconnected-(DS1-D0-Pad7)*%
X148340000Y-80500000D03*
%TO.P,DS1,8,D1_8*%
%TO.N,unconnected-(DS1-D1-Pad8)*%
X145800000Y-80500000D03*
%TO.P,DS1,9,D2_9*%
%TO.N,unconnected-(DS1-D2-Pad9)*%
X143260000Y-80500000D03*
%TO.P,DS1,10,D3_10*%
%TO.N,unconnected-(DS1-D3-Pad10)*%
X140720000Y-80500000D03*
%TO.P,DS1,11,D4_11*%
%TO.N,Net-(DS1-D4)*%
X138180000Y-80500000D03*
%TO.P,DS1,12,D5_12*%
%TO.N,Net-(DS1-D5)*%
X135640000Y-80500000D03*
%TO.P,DS1,13,D6_13*%
%TO.N,Net-(DS1-D6)*%
X133100000Y-80500000D03*
%TO.P,DS1,14,D7_14*%
%TO.N,Net-(DS1-D7)*%
X130560000Y-80500000D03*
%TO.P,DS1,15,LED(+)_15*%
%TO.N,VCC*%
X128020000Y-80500000D03*
%TO.P,DS1,16,LED(-)_16*%
%TO.N,GND*%
X125480000Y-80500000D03*
%TD*%
D15*
%TO.P,D1,1,K_1*%
%TO.N,GND*%
X205460000Y-104040000D03*
D16*
%TO.P,D1,2,A_2*%
%TO.N,Net-(D1-A)*%
X205460000Y-101500000D03*
%TD*%
D10*
%TO.P,C1,1*%
%TO.N,Net-(U1-XTAL2)*%
X142460000Y-145500000D03*
%TO.P,C1,2*%
%TO.N,GND*%
X147460000Y-145500000D03*
%TD*%
D17*
%TO.P,U1,1,PB0_1*%
%TO.N,unconnected-(U1-PB0-Pad1)*%
X98045000Y-132225000D03*
D10*
%TO.P,U1,2,PB1_2*%
%TO.N,Net-(U1-PB1)*%
X100585000Y-132225000D03*
%TO.P,U1,3,PB2_3*%
%TO.N,Net-(U1-PB2)*%
X103125000Y-132225000D03*
%TO.P,U1,4,PB3_4*%
%TO.N,unconnected-(U1-PB3-Pad4)*%
X105665000Y-132225000D03*
%TO.P,U1,5,PB4_5*%
%TO.N,unconnected-(U1-PB4-Pad5)*%
X108205000Y-132225000D03*
%TO.P,U1,6,PB5_6*%
%TO.N,unconnected-(U1-PB5-Pad6)*%
X110745000Y-132225000D03*
%TO.P,U1,7,PB6_7*%
%TO.N,unconnected-(U1-PB6-Pad7)*%
X113285000Y-132225000D03*
%TO.P,U1,8,PB7_8*%
%TO.N,unconnected-(U1-PB7-Pad8)*%
X115825000Y-132225000D03*
%TO.P,U1,9,~{RESET}_9*%
%TO.N,Net-(U1-~{RESET})*%
X118365000Y-132225000D03*
%TO.P,U1,10,VCC_10*%
%TO.N,VCC*%
X120905000Y-132225000D03*
%TO.P,U1,11,GND_11*%
%TO.N,GND*%
X123445000Y-132225000D03*
%TO.P,U1,12,XTAL2_12*%
%TO.N,Net-(U1-XTAL2)*%
X125985000Y-132225000D03*
%TO.P,U1,13,XTAL1_13*%
%TO.N,Net-(U1-XTAL1)*%
X128525000Y-132225000D03*
%TO.P,U1,14,PD0_14*%
%TO.N,Net-(J1-Pin_2)*%
X131065000Y-132225000D03*
%TO.P,U1,15,PD1_15*%
%TO.N,Net-(J1-Pin_3)*%
X133605000Y-132225000D03*
%TO.P,U1,16,PD2_16*%
%TO.N,unconnected-(U1-PD2-Pad16)*%
X136145000Y-132225000D03*
%TO.P,U1,17,PD3_17*%
%TO.N,unconnected-(U1-PD3-Pad17)*%
X138685000Y-132225000D03*
%TO.P,U1,18,PD4_18*%
%TO.N,unconnected-(U1-PD4-Pad18)*%
X141225000Y-132225000D03*
%TO.P,U1,19,PD5_19*%
%TO.N,unconnected-(U1-PD5-Pad19)*%
X143765000Y-132225000D03*
%TO.P,U1,20,PD6_20*%
%TO.N,unconnected-(U1-PD6-Pad20)*%
X146305000Y-132225000D03*
%TO.P,U1,21,PD7_21*%
%TO.N,unconnected-(U1-PD7-Pad21)*%
X146305000Y-116985000D03*
%TO.P,U1,22,PC0_22*%
%TO.N,Net-(DS1-RS)*%
X143765000Y-116985000D03*
%TO.P,U1,23,PC1_23*%
%TO.N,Net-(DS1-E)*%
X141225000Y-116985000D03*
%TO.P,U1,24,PC2_24*%
%TO.N,Net-(DS1-D4)*%
X138685000Y-116985000D03*
%TO.P,U1,25,PC3_25*%
%TO.N,Net-(DS1-D5)*%
X136145000Y-116985000D03*
%TO.P,U1,26,PC4_26*%
%TO.N,Net-(DS1-D6)*%
X133605000Y-116985000D03*
%TO.P,U1,27,PC5_27*%
%TO.N,Net-(DS1-D7)*%
X131065000Y-116985000D03*
%TO.P,U1,28,PC6_28*%
%TO.N,unconnected-(U1-PC6-Pad28)*%
X128525000Y-116985000D03*
%TO.P,U1,29,PC7_29*%
%TO.N,unconnected-(U1-PC7-Pad29)*%
X125985000Y-116985000D03*
%TO.P,U1,30,AVCC_30*%
%TO.N,VCC*%
X123445000Y-116985000D03*
%TO.P,U1,31,GND_31*%
%TO.N,GND*%
X120905000Y-116985000D03*
%TO.P,U1,32,AREF_32*%
%TO.N,unconnected-(U1-AREF-Pad32)*%
X118365000Y-116985000D03*
%TO.P,U1,33,PA7_33*%
%TO.N,unconnected-(U1-PA7-Pad33)*%
X115825000Y-116985000D03*
%TO.P,U1,34,PA6_34*%
%TO.N,unconnected-(U1-PA6-Pad34)*%
X113285000Y-116985000D03*
%TO.P,U1,35,PA5_35*%
%TO.N,unconnected-(U1-PA5-Pad35)*%
X110745000Y-116985000D03*
%TO.P,U1,36,PA4_36*%
%TO.N,unconnected-(U1-PA4-Pad36)*%
X108205000Y-116985000D03*
%TO.P,U1,37,PA3_37*%
%TO.N,unconnected-(U1-PA3-Pad37)*%
X105665000Y-116985000D03*
%TO.P,U1,38,PA2_38*%
%TO.N,Net-(U1-PA2)*%
X103125000Y-116985000D03*
%TO.P,U1,39,PA1_39*%
%TO.N,Net-(U1-PA1)*%
X100585000Y-116985000D03*
%TO.P,U1,40,PA0_40*%
%TO.N,Net-(U1-PA0)*%
X98045000Y-116985000D03*
%TD*%
D18*
%TO.P,SW2,1,1_1*%
%TO.N,Net-(U1-PA1)*%
X98210000Y-96250000D03*
X98210000Y-89750000D03*
%TO.P,SW2,2,2_2*%
%TO.N,GND*%
X102710000Y-96250000D03*
X102710000Y-89750000D03*
%TD*%
D19*
%TO.P,Y1,1,1_1*%
%TO.N,Net-(U1-XTAL2)*%
X128900000Y-142500000D03*
%TO.P,Y1,2,2_2*%
%TO.N,Net-(U1-XTAL1)*%
X133780000Y-142500000D03*
%TD*%
D10*
%TO.P,C2,1*%
%TO.N,Net-(U1-XTAL1)*%
X142460000Y-138500000D03*
%TO.P,C2,2*%
%TO.N,GND*%
X147460000Y-138500000D03*
%TD*%
D18*
%TO.P,SW3,1,1_1*%
%TO.N,Net-(U1-PA2)*%
X106760000Y-96250000D03*
X106760000Y-89750000D03*
%TO.P,SW3,2,2_2*%
%TO.N,GND*%
X111260000Y-96250000D03*
X111260000Y-89750000D03*
%TD*%
D10*
%TO.P,C4,1*%
%TO.N,VCC*%
X110960000Y-153000000D03*
%TO.P,C4,2*%
%TO.N,GND*%
X115960000Y-153000000D03*
%TD*%
D15*
%TO.P,D2,1,K_1*%
%TO.N,GND*%
X204460000Y-95500000D03*
D16*
%TO.P,D2,2,A_2*%
%TO.N,Net-(D2-A)*%
X204460000Y-92960000D03*
%TD*%
D10*
%TO.P,C3,1*%
%TO.N,VCC*%
X110960000Y-145500000D03*
%TO.P,C3,2*%
%TO.N,GND*%
X115960000Y-145500000D03*
%TD*%
D20*
%TO.P,J1,1,Pin_1_1*%
%TO.N,VCC*%
X159420000Y-108000000D03*
D21*
%TO.P,J1,2,Pin_2_2*%
%TO.N,Net-(J1-Pin_2)*%
X161960000Y-108000000D03*
%TO.P,J1,3,Pin_3_3*%
%TO.N,Net-(J1-Pin_3)*%
X164500000Y-108000000D03*
%TO.P,J1,4,Pin_4_4*%
%TO.N,GND*%
X167040000Y-108000000D03*
%TD*%
D18*
%TO.P,SW1,1,1_1*%
%TO.N,Net-(U1-PA0)*%
X89660000Y-96250000D03*
X89660000Y-89750000D03*
%TO.P,SW1,2,2_2*%
%TO.N,GND*%
X94160000Y-96250000D03*
X94160000Y-89750000D03*
%TD*%
D10*
%TO.P,R2,1*%
%TO.N,Net-(U1-PB2)*%
X188770000Y-93000000D03*
%TO.P,R2,2*%
%TO.N,Net-(D2-A)*%
X181150000Y-93000000D03*
%TD*%
%TO.P,R3,1*%
%TO.N,VCC*%
X103770000Y-140000000D03*
%TO.P,R3,2*%
%TO.N,Net-(U1-~{RESET})*%
X96150000Y-140000000D03*
%TD*%
%TO.N,Net-(U1-PB1)*%
D22*
X126820000Y-79602944D02*
X126820000Y-81451522D01*
X101685000Y-131125000D02*
X100585000Y-132225000D01*
X110721522Y-94950000D02*
X101685000Y-103986522D01*
X126820000Y-81451522D02*
X113321522Y-94950000D01*
X127922944Y-78500000D02*
X126820000Y-79602944D01*
X113321522Y-94950000D02*
X110721522Y-94950000D01*
X189870000Y-92544365D02*
X175825635Y-78500000D01*
X189870000Y-101900000D02*
X189870000Y-92544365D01*
X188770000Y-103000000D02*
X189870000Y-101900000D01*
X175825635Y-78500000D02*
X127922944Y-78500000D01*
X101685000Y-103986522D02*
X101685000Y-131125000D01*
%TO.N,GND*%
X123445000Y-119985000D02*
X123445000Y-132225000D01*
X120905000Y-117445000D02*
X123445000Y-119985000D01*
X142285000Y-133325000D02*
X147460000Y-138500000D01*
X124545000Y-133325000D02*
X142285000Y-133325000D01*
X123445000Y-132225000D02*
X124545000Y-133325000D01*
X120905000Y-116985000D02*
X120905000Y-117445000D01*
%TO.N,Net-(U1-PB2)*%
X166427498Y-146035000D02*
X153439365Y-146035000D01*
X167025000Y-114745000D02*
X167025000Y-145437498D01*
X167025000Y-145437498D02*
X166427498Y-146035000D01*
X104625000Y-133725000D02*
X103125000Y-132225000D01*
X188770000Y-93000000D02*
X167025000Y-114745000D01*
X153439365Y-146035000D02*
X141129365Y-133725000D01*
X141129365Y-133725000D02*
X104625000Y-133725000D01*
%TO.N,VCC*%
X128020000Y-80500000D02*
X129620000Y-78900000D01*
X129620000Y-78900000D02*
X159440000Y-78900000D01*
X159440000Y-78900000D02*
X161040000Y-80500000D01*
%TO.N,Net-(J1-Pin_2)*%
X151875000Y-118085000D02*
X145205000Y-118085000D01*
X145205000Y-118085000D02*
X131065000Y-132225000D01*
X161960000Y-108000000D02*
X151875000Y-118085000D01*
%TO.N,Net-(J1-Pin_3)*%
X134830000Y-131000000D02*
X133605000Y-132225000D01*
X164500000Y-108000000D02*
X141500000Y-131000000D01*
X141500000Y-131000000D02*
X134830000Y-131000000D01*
%TO.N,Net-(DS1-VO)*%
X165650000Y-144660000D02*
X165650000Y-87650000D01*
X166005000Y-145015000D02*
X165650000Y-144660000D01*
X165650000Y-87650000D02*
X158500000Y-80500000D01*
%TD*%
M02*
