M48
; DRILL file KiCad 10.0.2 date 2026-07-01T16:26:24
; FORMAT={-:-/ absolute / metric / decimal}
; #@! TF.CreationDate,2026-07-01T16:26:24+03:00
; #@! TF.GenerationSoftware,Kicad,Pcbnew,10.0.2
; #@! TF.FileFunction,Plated,1,2,PTH
FMAT,2
METRIC
; #@! TA.AperFunction,Plated,PTH,ComponentDrill
T1C0.800
; #@! TA.AperFunction,Plated,PTH,ComponentDrill
T2C0.900
; #@! TA.AperFunction,Plated,PTH,ComponentDrill
T3C1.000
; #@! TA.AperFunction,Plated,PTH,ComponentDrill
T4C1.100
%
G90
G05
T1
X109.205Y-121.515
X111.1Y-98.5
X111.1Y-113.74
X113.64Y-98.5
X113.64Y-113.74
X116.18Y-98.5
X116.18Y-113.74
X116.825Y-121.515
X118.72Y-98.5
X118.72Y-113.74
X121.26Y-98.5
X121.26Y-113.74
X123.8Y-98.5
X123.8Y-113.74
X124.015Y-127.015
X124.015Y-134.515
X126.34Y-98.5
X126.34Y-113.74
X128.88Y-98.5
X128.88Y-113.74
X129.015Y-127.015
X129.015Y-134.515
X131.42Y-98.5
X131.42Y-113.74
X133.96Y-98.5
X133.96Y-113.74
X136.5Y-98.5
X136.5Y-113.74
X139.04Y-98.5
X139.04Y-113.74
X140.705Y-72.015
X140.705Y-82.015
X141.58Y-98.5
X141.58Y-113.74
X141.955Y-124.015
X144.12Y-98.5
X144.12Y-113.74
X146.66Y-98.5
X146.66Y-113.74
X146.835Y-124.015
X148.325Y-72.015
X148.325Y-82.015
X149.2Y-98.5
X149.2Y-113.74
X151.74Y-98.5
X151.74Y-113.74
X154.28Y-98.5
X154.28Y-113.74
X155.515Y-120.015
X155.515Y-127.015
X156.82Y-98.5
X156.82Y-113.74
X159.36Y-98.5
X159.36Y-113.74
X160.515Y-120.015
X160.515Y-127.015
T2
X164.015Y-71.975
X164.015Y-74.515
X165.015Y-80.515
X165.015Y-83.055
T3
X147.935Y-90.015
X150.475Y-90.015
X153.015Y-90.015
X155.555Y-90.015
T4
X102.715Y-71.265
X102.715Y-77.765
X107.215Y-71.265
X107.215Y-77.765
X111.265Y-71.265
X111.265Y-77.765
X115.765Y-71.265
X115.765Y-77.765
X119.815Y-71.265
X119.815Y-77.765
X124.315Y-71.265
X124.315Y-77.765
M30
