%TF.GenerationSoftware,KiCad,Pcbnew,10.0.2*%
%TF.CreationDate,2026-06-16T08:53:05+03:00*%
%TF.ProjectId,ATmega32_USART_Serial_Data_Monitor_System_v001,41546d65-6761-4333-925f-55534152545f,v001*%
%TF.SameCoordinates,Original*%
%TF.FileFunction,Legend,Top*%
%TF.FilePolarity,Positive*%
%FSLAX46Y46*%
G04 Gerber Fmt 4.6, Leading zero omitted, Abs format (unit mm)*
G04 Created by KiCad (PCBNEW 10.0.2) date 2026-06-16 08:53:05*
%MOMM*%
%LPD*%
G01*
G04 APERTURE LIST*
%ADD10C,0.150000*%
%ADD11C,0.120000*%
G04 APERTURE END LIST*
D10*
X184761905Y-112454819D02*
X184761905Y-111454819D01*
X184761905Y-111454819D02*
X185000000Y-111454819D01*
X185000000Y-111454819D02*
X185142857Y-111502438D01*
X185142857Y-111502438D02*
X185238095Y-111597676D01*
X185238095Y-111597676D02*
X185285714Y-111692914D01*
X185285714Y-111692914D02*
X185333333Y-111883390D01*
X185333333Y-111883390D02*
X185333333Y-112026247D01*
X185333333Y-112026247D02*
X185285714Y-112216723D01*
X185285714Y-112216723D02*
X185238095Y-112311961D01*
X185238095Y-112311961D02*
X185142857Y-112407200D01*
X185142857Y-112407200D02*
X185000000Y-112454819D01*
X185000000Y-112454819D02*
X184761905Y-112454819D01*
X185714286Y-111550057D02*
X185761905Y-111502438D01*
X185761905Y-111502438D02*
X185857143Y-111454819D01*
X185857143Y-111454819D02*
X186095238Y-111454819D01*
X186095238Y-111454819D02*
X186190476Y-111502438D01*
X186190476Y-111502438D02*
X186238095Y-111550057D01*
X186238095Y-111550057D02*
X186285714Y-111645295D01*
X186285714Y-111645295D02*
X186285714Y-111740533D01*
X186285714Y-111740533D02*
X186238095Y-111883390D01*
X186238095Y-111883390D02*
X185666667Y-112454819D01*
X185666667Y-112454819D02*
X186285714Y-112454819D01*
X153523809Y-60978628D02*
X153523809Y-61454819D01*
X153190476Y-60454819D02*
X153523809Y-60978628D01*
X153523809Y-60978628D02*
X153857142Y-60454819D01*
X154714285Y-61454819D02*
X154142857Y-61454819D01*
X154428571Y-61454819D02*
X154428571Y-60454819D01*
X154428571Y-60454819D02*
X154333333Y-60597676D01*
X154333333Y-60597676D02*
X154238095Y-60692914D01*
X154238095Y-60692914D02*
X154142857Y-60740533D01*
X178991905Y-101494819D02*
X178991905Y-100494819D01*
X178991905Y-100494819D02*
X179230000Y-100494819D01*
X179230000Y-100494819D02*
X179372857Y-100542438D01*
X179372857Y-100542438D02*
X179468095Y-100637676D01*
X179468095Y-100637676D02*
X179515714Y-100732914D01*
X179515714Y-100732914D02*
X179563333Y-100923390D01*
X179563333Y-100923390D02*
X179563333Y-101066247D01*
X179563333Y-101066247D02*
X179515714Y-101256723D01*
X179515714Y-101256723D02*
X179468095Y-101351961D01*
X179468095Y-101351961D02*
X179372857Y-101447200D01*
X179372857Y-101447200D02*
X179230000Y-101494819D01*
X179230000Y-101494819D02*
X178991905Y-101494819D01*
X180515714Y-101494819D02*
X179944286Y-101494819D01*
X180230000Y-101494819D02*
X180230000Y-100494819D01*
X180230000Y-100494819D02*
X180134762Y-100637676D01*
X180134762Y-100637676D02*
X180039524Y-100732914D01*
X180039524Y-100732914D02*
X179944286Y-100780533D01*
X137833333Y-93359580D02*
X137785714Y-93407200D01*
X137785714Y-93407200D02*
X137642857Y-93454819D01*
X137642857Y-93454819D02*
X137547619Y-93454819D01*
X137547619Y-93454819D02*
X137404762Y-93407200D01*
X137404762Y-93407200D02*
X137309524Y-93311961D01*
X137309524Y-93311961D02*
X137261905Y-93216723D01*
X137261905Y-93216723D02*
X137214286Y-93026247D01*
X137214286Y-93026247D02*
X137214286Y-92883390D01*
X137214286Y-92883390D02*
X137261905Y-92692914D01*
X137261905Y-92692914D02*
X137309524Y-92597676D01*
X137309524Y-92597676D02*
X137404762Y-92502438D01*
X137404762Y-92502438D02*
X137547619Y-92454819D01*
X137547619Y-92454819D02*
X137642857Y-92454819D01*
X137642857Y-92454819D02*
X137785714Y-92502438D01*
X137785714Y-92502438D02*
X137833333Y-92550057D01*
X138166667Y-92454819D02*
X138785714Y-92454819D01*
X138785714Y-92454819D02*
X138452381Y-92835771D01*
X138452381Y-92835771D02*
X138595238Y-92835771D01*
X138595238Y-92835771D02*
X138690476Y-92883390D01*
X138690476Y-92883390D02*
X138738095Y-92931009D01*
X138738095Y-92931009D02*
X138785714Y-93026247D01*
X138785714Y-93026247D02*
X138785714Y-93264342D01*
X138785714Y-93264342D02*
X138738095Y-93359580D01*
X138738095Y-93359580D02*
X138690476Y-93407200D01*
X138690476Y-93407200D02*
X138595238Y-93454819D01*
X138595238Y-93454819D02*
X138309524Y-93454819D01*
X138309524Y-93454819D02*
X138214286Y-93407200D01*
X138214286Y-93407200D02*
X138166667Y-93359580D01*
X113666667Y-48157200D02*
X113809524Y-48204819D01*
X113809524Y-48204819D02*
X114047619Y-48204819D01*
X114047619Y-48204819D02*
X114142857Y-48157200D01*
X114142857Y-48157200D02*
X114190476Y-48109580D01*
X114190476Y-48109580D02*
X114238095Y-48014342D01*
X114238095Y-48014342D02*
X114238095Y-47919104D01*
X114238095Y-47919104D02*
X114190476Y-47823866D01*
X114190476Y-47823866D02*
X114142857Y-47776247D01*
X114142857Y-47776247D02*
X114047619Y-47728628D01*
X114047619Y-47728628D02*
X113857143Y-47681009D01*
X113857143Y-47681009D02*
X113761905Y-47633390D01*
X113761905Y-47633390D02*
X113714286Y-47585771D01*
X113714286Y-47585771D02*
X113666667Y-47490533D01*
X113666667Y-47490533D02*
X113666667Y-47395295D01*
X113666667Y-47395295D02*
X113714286Y-47300057D01*
X113714286Y-47300057D02*
X113761905Y-47252438D01*
X113761905Y-47252438D02*
X113857143Y-47204819D01*
X113857143Y-47204819D02*
X114095238Y-47204819D01*
X114095238Y-47204819D02*
X114238095Y-47252438D01*
X114571429Y-47204819D02*
X114809524Y-48204819D01*
X114809524Y-48204819D02*
X115000000Y-47490533D01*
X115000000Y-47490533D02*
X115190476Y-48204819D01*
X115190476Y-48204819D02*
X115428572Y-47204819D01*
X115714286Y-47204819D02*
X116333333Y-47204819D01*
X116333333Y-47204819D02*
X116000000Y-47585771D01*
X116000000Y-47585771D02*
X116142857Y-47585771D01*
X116142857Y-47585771D02*
X116238095Y-47633390D01*
X116238095Y-47633390D02*
X116285714Y-47681009D01*
X116285714Y-47681009D02*
X116333333Y-47776247D01*
X116333333Y-47776247D02*
X116333333Y-48014342D01*
X116333333Y-48014342D02*
X116285714Y-48109580D01*
X116285714Y-48109580D02*
X116238095Y-48157200D01*
X116238095Y-48157200D02*
X116142857Y-48204819D01*
X116142857Y-48204819D02*
X115857143Y-48204819D01*
X115857143Y-48204819D02*
X115761905Y-48157200D01*
X115761905Y-48157200D02*
X115714286Y-48109580D01*
X113666667Y-65257200D02*
X113809524Y-65304819D01*
X113809524Y-65304819D02*
X114047619Y-65304819D01*
X114047619Y-65304819D02*
X114142857Y-65257200D01*
X114142857Y-65257200D02*
X114190476Y-65209580D01*
X114190476Y-65209580D02*
X114238095Y-65114342D01*
X114238095Y-65114342D02*
X114238095Y-65019104D01*
X114238095Y-65019104D02*
X114190476Y-64923866D01*
X114190476Y-64923866D02*
X114142857Y-64876247D01*
X114142857Y-64876247D02*
X114047619Y-64828628D01*
X114047619Y-64828628D02*
X113857143Y-64781009D01*
X113857143Y-64781009D02*
X113761905Y-64733390D01*
X113761905Y-64733390D02*
X113714286Y-64685771D01*
X113714286Y-64685771D02*
X113666667Y-64590533D01*
X113666667Y-64590533D02*
X113666667Y-64495295D01*
X113666667Y-64495295D02*
X113714286Y-64400057D01*
X113714286Y-64400057D02*
X113761905Y-64352438D01*
X113761905Y-64352438D02*
X113857143Y-64304819D01*
X113857143Y-64304819D02*
X114095238Y-64304819D01*
X114095238Y-64304819D02*
X114238095Y-64352438D01*
X114571429Y-64304819D02*
X114809524Y-65304819D01*
X114809524Y-65304819D02*
X115000000Y-64590533D01*
X115000000Y-64590533D02*
X115190476Y-65304819D01*
X115190476Y-65304819D02*
X115428572Y-64304819D01*
X116285714Y-64304819D02*
X115809524Y-64304819D01*
X115809524Y-64304819D02*
X115761905Y-64781009D01*
X115761905Y-64781009D02*
X115809524Y-64733390D01*
X115809524Y-64733390D02*
X115904762Y-64685771D01*
X115904762Y-64685771D02*
X116142857Y-64685771D01*
X116142857Y-64685771D02*
X116238095Y-64733390D01*
X116238095Y-64733390D02*
X116285714Y-64781009D01*
X116285714Y-64781009D02*
X116333333Y-64876247D01*
X116333333Y-64876247D02*
X116333333Y-65114342D01*
X116333333Y-65114342D02*
X116285714Y-65209580D01*
X116285714Y-65209580D02*
X116238095Y-65257200D01*
X116238095Y-65257200D02*
X116142857Y-65304819D01*
X116142857Y-65304819D02*
X115904762Y-65304819D01*
X115904762Y-65304819D02*
X115809524Y-65257200D01*
X115809524Y-65257200D02*
X115761905Y-65209580D01*
X113666667Y-56707200D02*
X113809524Y-56754819D01*
X113809524Y-56754819D02*
X114047619Y-56754819D01*
X114047619Y-56754819D02*
X114142857Y-56707200D01*
X114142857Y-56707200D02*
X114190476Y-56659580D01*
X114190476Y-56659580D02*
X114238095Y-56564342D01*
X114238095Y-56564342D02*
X114238095Y-56469104D01*
X114238095Y-56469104D02*
X114190476Y-56373866D01*
X114190476Y-56373866D02*
X114142857Y-56326247D01*
X114142857Y-56326247D02*
X114047619Y-56278628D01*
X114047619Y-56278628D02*
X113857143Y-56231009D01*
X113857143Y-56231009D02*
X113761905Y-56183390D01*
X113761905Y-56183390D02*
X113714286Y-56135771D01*
X113714286Y-56135771D02*
X113666667Y-56040533D01*
X113666667Y-56040533D02*
X113666667Y-55945295D01*
X113666667Y-55945295D02*
X113714286Y-55850057D01*
X113714286Y-55850057D02*
X113761905Y-55802438D01*
X113761905Y-55802438D02*
X113857143Y-55754819D01*
X113857143Y-55754819D02*
X114095238Y-55754819D01*
X114095238Y-55754819D02*
X114238095Y-55802438D01*
X114571429Y-55754819D02*
X114809524Y-56754819D01*
X114809524Y-56754819D02*
X115000000Y-56040533D01*
X115000000Y-56040533D02*
X115190476Y-56754819D01*
X115190476Y-56754819D02*
X115428572Y-55754819D01*
X116238095Y-56088152D02*
X116238095Y-56754819D01*
X116000000Y-55707200D02*
X115761905Y-56421485D01*
X115761905Y-56421485D02*
X116380952Y-56421485D01*
X110166666Y-100494819D02*
X110166666Y-101209104D01*
X110166666Y-101209104D02*
X110119047Y-101351961D01*
X110119047Y-101351961D02*
X110023809Y-101447200D01*
X110023809Y-101447200D02*
X109880952Y-101494819D01*
X109880952Y-101494819D02*
X109785714Y-101494819D01*
X111166666Y-101494819D02*
X110595238Y-101494819D01*
X110880952Y-101494819D02*
X110880952Y-100494819D01*
X110880952Y-100494819D02*
X110785714Y-100637676D01*
X110785714Y-100637676D02*
X110690476Y-100732914D01*
X110690476Y-100732914D02*
X110595238Y-100780533D01*
X142333333Y-54859580D02*
X142285714Y-54907200D01*
X142285714Y-54907200D02*
X142142857Y-54954819D01*
X142142857Y-54954819D02*
X142047619Y-54954819D01*
X142047619Y-54954819D02*
X141904762Y-54907200D01*
X141904762Y-54907200D02*
X141809524Y-54811961D01*
X141809524Y-54811961D02*
X141761905Y-54716723D01*
X141761905Y-54716723D02*
X141714286Y-54526247D01*
X141714286Y-54526247D02*
X141714286Y-54383390D01*
X141714286Y-54383390D02*
X141761905Y-54192914D01*
X141761905Y-54192914D02*
X141809524Y-54097676D01*
X141809524Y-54097676D02*
X141904762Y-54002438D01*
X141904762Y-54002438D02*
X142047619Y-53954819D01*
X142047619Y-53954819D02*
X142142857Y-53954819D01*
X142142857Y-53954819D02*
X142285714Y-54002438D01*
X142285714Y-54002438D02*
X142333333Y-54050057D01*
X143285714Y-54954819D02*
X142714286Y-54954819D01*
X143000000Y-54954819D02*
X143000000Y-53954819D01*
X143000000Y-53954819D02*
X142904762Y-54097676D01*
X142904762Y-54097676D02*
X142809524Y-54192914D01*
X142809524Y-54192914D02*
X142714286Y-54240533D01*
X127104819Y-75881904D02*
X127914342Y-75881904D01*
X127914342Y-75881904D02*
X128009580Y-75834285D01*
X128009580Y-75834285D02*
X128057200Y-75786666D01*
X128057200Y-75786666D02*
X128104819Y-75691428D01*
X128104819Y-75691428D02*
X128104819Y-75500952D01*
X128104819Y-75500952D02*
X128057200Y-75405714D01*
X128057200Y-75405714D02*
X128009580Y-75358095D01*
X128009580Y-75358095D02*
X127914342Y-75310476D01*
X127914342Y-75310476D02*
X127104819Y-75310476D01*
X128104819Y-74310476D02*
X128104819Y-74881904D01*
X128104819Y-74596190D02*
X127104819Y-74596190D01*
X127104819Y-74596190D02*
X127247676Y-74691428D01*
X127247676Y-74691428D02*
X127342914Y-74786666D01*
X127342914Y-74786666D02*
X127390533Y-74881904D01*
X174333333Y-53859580D02*
X174285714Y-53907200D01*
X174285714Y-53907200D02*
X174142857Y-53954819D01*
X174142857Y-53954819D02*
X174047619Y-53954819D01*
X174047619Y-53954819D02*
X173904762Y-53907200D01*
X173904762Y-53907200D02*
X173809524Y-53811961D01*
X173809524Y-53811961D02*
X173761905Y-53716723D01*
X173761905Y-53716723D02*
X173714286Y-53526247D01*
X173714286Y-53526247D02*
X173714286Y-53383390D01*
X173714286Y-53383390D02*
X173761905Y-53192914D01*
X173761905Y-53192914D02*
X173809524Y-53097676D01*
X173809524Y-53097676D02*
X173904762Y-53002438D01*
X173904762Y-53002438D02*
X174047619Y-52954819D01*
X174047619Y-52954819D02*
X174142857Y-52954819D01*
X174142857Y-52954819D02*
X174285714Y-53002438D01*
X174285714Y-53002438D02*
X174333333Y-53050057D01*
X174714286Y-53050057D02*
X174761905Y-53002438D01*
X174761905Y-53002438D02*
X174857143Y-52954819D01*
X174857143Y-52954819D02*
X175095238Y-52954819D01*
X175095238Y-52954819D02*
X175190476Y-53002438D01*
X175190476Y-53002438D02*
X175238095Y-53050057D01*
X175238095Y-53050057D02*
X175285714Y-53145295D01*
X175285714Y-53145295D02*
X175285714Y-53240533D01*
X175285714Y-53240533D02*
X175238095Y-53383390D01*
X175238095Y-53383390D02*
X174666667Y-53954819D01*
X174666667Y-53954819D02*
X175285714Y-53954819D01*
X166643333Y-104584819D02*
X166310000Y-104108628D01*
X166071905Y-104584819D02*
X166071905Y-103584819D01*
X166071905Y-103584819D02*
X166452857Y-103584819D01*
X166452857Y-103584819D02*
X166548095Y-103632438D01*
X166548095Y-103632438D02*
X166595714Y-103680057D01*
X166595714Y-103680057D02*
X166643333Y-103775295D01*
X166643333Y-103775295D02*
X166643333Y-103918152D01*
X166643333Y-103918152D02*
X166595714Y-104013390D01*
X166595714Y-104013390D02*
X166548095Y-104061009D01*
X166548095Y-104061009D02*
X166452857Y-104108628D01*
X166452857Y-104108628D02*
X166071905Y-104108628D01*
X167595714Y-104584819D02*
X167024286Y-104584819D01*
X167310000Y-104584819D02*
X167310000Y-103584819D01*
X167310000Y-103584819D02*
X167214762Y-103727676D01*
X167214762Y-103727676D02*
X167119524Y-103822914D01*
X167119524Y-103822914D02*
X167024286Y-103870533D01*
X113416667Y-31407200D02*
X113559524Y-31454819D01*
X113559524Y-31454819D02*
X113797619Y-31454819D01*
X113797619Y-31454819D02*
X113892857Y-31407200D01*
X113892857Y-31407200D02*
X113940476Y-31359580D01*
X113940476Y-31359580D02*
X113988095Y-31264342D01*
X113988095Y-31264342D02*
X113988095Y-31169104D01*
X113988095Y-31169104D02*
X113940476Y-31073866D01*
X113940476Y-31073866D02*
X113892857Y-31026247D01*
X113892857Y-31026247D02*
X113797619Y-30978628D01*
X113797619Y-30978628D02*
X113607143Y-30931009D01*
X113607143Y-30931009D02*
X113511905Y-30883390D01*
X113511905Y-30883390D02*
X113464286Y-30835771D01*
X113464286Y-30835771D02*
X113416667Y-30740533D01*
X113416667Y-30740533D02*
X113416667Y-30645295D01*
X113416667Y-30645295D02*
X113464286Y-30550057D01*
X113464286Y-30550057D02*
X113511905Y-30502438D01*
X113511905Y-30502438D02*
X113607143Y-30454819D01*
X113607143Y-30454819D02*
X113845238Y-30454819D01*
X113845238Y-30454819D02*
X113988095Y-30502438D01*
X114321429Y-30454819D02*
X114559524Y-31454819D01*
X114559524Y-31454819D02*
X114750000Y-30740533D01*
X114750000Y-30740533D02*
X114940476Y-31454819D01*
X114940476Y-31454819D02*
X115178572Y-30454819D01*
X116083333Y-31454819D02*
X115511905Y-31454819D01*
X115797619Y-31454819D02*
X115797619Y-30454819D01*
X115797619Y-30454819D02*
X115702381Y-30597676D01*
X115702381Y-30597676D02*
X115607143Y-30692914D01*
X115607143Y-30692914D02*
X115511905Y-30740533D01*
X113666667Y-39607200D02*
X113809524Y-39654819D01*
X113809524Y-39654819D02*
X114047619Y-39654819D01*
X114047619Y-39654819D02*
X114142857Y-39607200D01*
X114142857Y-39607200D02*
X114190476Y-39559580D01*
X114190476Y-39559580D02*
X114238095Y-39464342D01*
X114238095Y-39464342D02*
X114238095Y-39369104D01*
X114238095Y-39369104D02*
X114190476Y-39273866D01*
X114190476Y-39273866D02*
X114142857Y-39226247D01*
X114142857Y-39226247D02*
X114047619Y-39178628D01*
X114047619Y-39178628D02*
X113857143Y-39131009D01*
X113857143Y-39131009D02*
X113761905Y-39083390D01*
X113761905Y-39083390D02*
X113714286Y-39035771D01*
X113714286Y-39035771D02*
X113666667Y-38940533D01*
X113666667Y-38940533D02*
X113666667Y-38845295D01*
X113666667Y-38845295D02*
X113714286Y-38750057D01*
X113714286Y-38750057D02*
X113761905Y-38702438D01*
X113761905Y-38702438D02*
X113857143Y-38654819D01*
X113857143Y-38654819D02*
X114095238Y-38654819D01*
X114095238Y-38654819D02*
X114238095Y-38702438D01*
X114571429Y-38654819D02*
X114809524Y-39654819D01*
X114809524Y-39654819D02*
X115000000Y-38940533D01*
X115000000Y-38940533D02*
X115190476Y-39654819D01*
X115190476Y-39654819D02*
X115428572Y-38654819D01*
X115761905Y-38750057D02*
X115809524Y-38702438D01*
X115809524Y-38702438D02*
X115904762Y-38654819D01*
X115904762Y-38654819D02*
X116142857Y-38654819D01*
X116142857Y-38654819D02*
X116238095Y-38702438D01*
X116238095Y-38702438D02*
X116285714Y-38750057D01*
X116285714Y-38750057D02*
X116333333Y-38845295D01*
X116333333Y-38845295D02*
X116333333Y-38940533D01*
X116333333Y-38940533D02*
X116285714Y-39083390D01*
X116285714Y-39083390D02*
X115714286Y-39654819D01*
X115714286Y-39654819D02*
X116333333Y-39654819D01*
X129833333Y-100859580D02*
X129785714Y-100907200D01*
X129785714Y-100907200D02*
X129642857Y-100954819D01*
X129642857Y-100954819D02*
X129547619Y-100954819D01*
X129547619Y-100954819D02*
X129404762Y-100907200D01*
X129404762Y-100907200D02*
X129309524Y-100811961D01*
X129309524Y-100811961D02*
X129261905Y-100716723D01*
X129261905Y-100716723D02*
X129214286Y-100526247D01*
X129214286Y-100526247D02*
X129214286Y-100383390D01*
X129214286Y-100383390D02*
X129261905Y-100192914D01*
X129261905Y-100192914D02*
X129309524Y-100097676D01*
X129309524Y-100097676D02*
X129404762Y-100002438D01*
X129404762Y-100002438D02*
X129547619Y-99954819D01*
X129547619Y-99954819D02*
X129642857Y-99954819D01*
X129642857Y-99954819D02*
X129785714Y-100002438D01*
X129785714Y-100002438D02*
X129833333Y-100050057D01*
X130690476Y-100288152D02*
X130690476Y-100954819D01*
X130452381Y-99907200D02*
X130214286Y-100621485D01*
X130214286Y-100621485D02*
X130833333Y-100621485D01*
X167333333Y-111084819D02*
X167000000Y-110608628D01*
X166761905Y-111084819D02*
X166761905Y-110084819D01*
X166761905Y-110084819D02*
X167142857Y-110084819D01*
X167142857Y-110084819D02*
X167238095Y-110132438D01*
X167238095Y-110132438D02*
X167285714Y-110180057D01*
X167285714Y-110180057D02*
X167333333Y-110275295D01*
X167333333Y-110275295D02*
X167333333Y-110418152D01*
X167333333Y-110418152D02*
X167285714Y-110513390D01*
X167285714Y-110513390D02*
X167238095Y-110561009D01*
X167238095Y-110561009D02*
X167142857Y-110608628D01*
X167142857Y-110608628D02*
X166761905Y-110608628D01*
X167714286Y-110180057D02*
X167761905Y-110132438D01*
X167761905Y-110132438D02*
X167857143Y-110084819D01*
X167857143Y-110084819D02*
X168095238Y-110084819D01*
X168095238Y-110084819D02*
X168190476Y-110132438D01*
X168190476Y-110132438D02*
X168238095Y-110180057D01*
X168238095Y-110180057D02*
X168285714Y-110275295D01*
X168285714Y-110275295D02*
X168285714Y-110370533D01*
X168285714Y-110370533D02*
X168238095Y-110513390D01*
X168238095Y-110513390D02*
X167666667Y-111084819D01*
X167666667Y-111084819D02*
X168285714Y-111084819D01*
X116833333Y-83584819D02*
X116500000Y-83108628D01*
X116261905Y-83584819D02*
X116261905Y-82584819D01*
X116261905Y-82584819D02*
X116642857Y-82584819D01*
X116642857Y-82584819D02*
X116738095Y-82632438D01*
X116738095Y-82632438D02*
X116785714Y-82680057D01*
X116785714Y-82680057D02*
X116833333Y-82775295D01*
X116833333Y-82775295D02*
X116833333Y-82918152D01*
X116833333Y-82918152D02*
X116785714Y-83013390D01*
X116785714Y-83013390D02*
X116738095Y-83061009D01*
X116738095Y-83061009D02*
X116642857Y-83108628D01*
X116642857Y-83108628D02*
X116261905Y-83108628D01*
X117166667Y-82584819D02*
X117785714Y-82584819D01*
X117785714Y-82584819D02*
X117452381Y-82965771D01*
X117452381Y-82965771D02*
X117595238Y-82965771D01*
X117595238Y-82965771D02*
X117690476Y-83013390D01*
X117690476Y-83013390D02*
X117738095Y-83061009D01*
X117738095Y-83061009D02*
X117785714Y-83156247D01*
X117785714Y-83156247D02*
X117785714Y-83394342D01*
X117785714Y-83394342D02*
X117738095Y-83489580D01*
X117738095Y-83489580D02*
X117690476Y-83537200D01*
X117690476Y-83537200D02*
X117595238Y-83584819D01*
X117595238Y-83584819D02*
X117309524Y-83584819D01*
X117309524Y-83584819D02*
X117214286Y-83537200D01*
X117214286Y-83537200D02*
X117166667Y-83489580D01*
%TO.C,D2*%
D11*
X177670000Y-110955000D02*
X177670000Y-114045000D01*
X177670000Y-110955170D02*
G75*
G02*
X183220000Y-112500000I2560000J-1544830D01*
G01*
X183220000Y-112500000D02*
G75*
G02*
X177670000Y-114044830I-2990000J0D01*
G01*
X182730000Y-112500000D02*
G75*
G02*
X177730000Y-112500000I-2500000J0D01*
G01*
X177730000Y-112500000D02*
G75*
G02*
X182730000Y-112500000I2500000J0D01*
G01*
%TO.C,Y1*%
X162065000Y-54565000D02*
G75*
G02*
X162065000Y-59435000I0J-2435000D01*
G01*
X155815000Y-59435000D02*
G75*
G02*
X155815000Y-54565000I0J2435000D01*
G01*
X162065000Y-59435000D02*
X155815000Y-59435000D01*
X155815000Y-54565000D02*
X162065000Y-54565000D01*
%TO.C,D1*%
X182230000Y-105000000D02*
G75*
G02*
X177230000Y-105000000I-2500000J0D01*
G01*
X177230000Y-105000000D02*
G75*
G02*
X182230000Y-105000000I2500000J0D01*
G01*
X182720000Y-105000000D02*
G75*
G02*
X177170000Y-106544830I-2990000J0D01*
G01*
X177170000Y-103455170D02*
G75*
G02*
X182720000Y-105000000I2560000J-1544830D01*
G01*
X177170000Y-103455000D02*
X177170000Y-106545000D01*
%TO.C,C3*%
X124880000Y-89630000D02*
X130120000Y-89630000D01*
X124880000Y-89967000D02*
X124880000Y-89630000D01*
X124880000Y-92370000D02*
X124880000Y-92033000D01*
X130120000Y-89630000D02*
X130120000Y-89967000D01*
X130120000Y-92033000D02*
X130120000Y-92370000D01*
X130120000Y-92370000D02*
X124880000Y-92370000D01*
%TO.C,SW3*%
X111500000Y-51250000D02*
X111500000Y-52750000D01*
X112750000Y-55250000D02*
X117250000Y-55250000D01*
X117250000Y-48750000D02*
X112750000Y-48750000D01*
X118500000Y-52750000D02*
X118500000Y-51250000D01*
%TO.C,SW5*%
X111500000Y-68350000D02*
X111500000Y-69850000D01*
X112750000Y-72350000D02*
X117250000Y-72350000D01*
X117250000Y-65850000D02*
X112750000Y-65850000D01*
X118500000Y-69850000D02*
X118500000Y-68350000D01*
%TO.C,SW4*%
X111500000Y-59800000D02*
X111500000Y-61300000D01*
X112750000Y-63800000D02*
X117250000Y-63800000D01*
X117250000Y-57300000D02*
X112750000Y-57300000D01*
X118500000Y-61300000D02*
X118500000Y-59800000D01*
%TO.C,J1*%
X109120000Y-102040000D02*
X110500000Y-102040000D01*
X109120000Y-103420000D02*
X109120000Y-102040000D01*
X109120000Y-104690000D02*
X109120000Y-112420000D01*
X109120000Y-104690000D02*
X111880000Y-104690000D01*
X109120000Y-112420000D02*
X111880000Y-112420000D01*
X111880000Y-104690000D02*
X111880000Y-112420000D01*
%TO.C,C1*%
X139880000Y-55630000D02*
X145120000Y-55630000D01*
X139880000Y-55967000D02*
X139880000Y-55630000D01*
X139880000Y-58370000D02*
X139880000Y-58033000D01*
X145120000Y-55630000D02*
X145120000Y-55967000D01*
X145120000Y-58033000D02*
X145120000Y-58370000D01*
X145120000Y-58370000D02*
X139880000Y-58370000D01*
%TO.C,U1*%
X128650000Y-81580000D02*
X179570000Y-81580000D01*
X179570000Y-81580000D02*
X179570000Y-68660000D01*
X128650000Y-76120000D02*
X128650000Y-81580000D01*
X128650000Y-68660000D02*
X128650000Y-74120000D01*
X179570000Y-68660000D02*
X128650000Y-68660000D01*
X128650000Y-74120000D02*
G75*
G02*
X128650000Y-76120000I0J-1000000D01*
G01*
%TO.C,C2*%
X171880000Y-54630000D02*
X177120000Y-54630000D01*
X171880000Y-54967000D02*
X171880000Y-54630000D01*
X171880000Y-57370000D02*
X171880000Y-57033000D01*
X177120000Y-54630000D02*
X177120000Y-54967000D01*
X177120000Y-57033000D02*
X177120000Y-57370000D01*
X177120000Y-57370000D02*
X171880000Y-57370000D01*
%TO.C,R1*%
X163540000Y-105130000D02*
X170080000Y-105130000D01*
X163540000Y-105460000D02*
X163540000Y-105130000D01*
X163540000Y-107540000D02*
X163540000Y-107870000D01*
X163540000Y-107870000D02*
X170080000Y-107870000D01*
X170080000Y-105130000D02*
X170080000Y-105460000D01*
X170080000Y-107870000D02*
X170080000Y-107540000D01*
%TO.C,SW1*%
X111250000Y-34500000D02*
X111250000Y-36000000D01*
X112500000Y-38500000D02*
X117000000Y-38500000D01*
X117000000Y-32000000D02*
X112500000Y-32000000D01*
X118250000Y-36000000D02*
X118250000Y-34500000D01*
%TO.C,SW2*%
X111500000Y-42700000D02*
X111500000Y-44200000D01*
X112750000Y-46700000D02*
X117250000Y-46700000D01*
X117250000Y-40200000D02*
X112750000Y-40200000D01*
X118500000Y-44200000D02*
X118500000Y-42700000D01*
%TO.C,C4*%
X124880000Y-93680000D02*
X130120000Y-93680000D01*
X124880000Y-94017000D02*
X124880000Y-93680000D01*
X124880000Y-96420000D02*
X124880000Y-96083000D01*
X130120000Y-93680000D02*
X130120000Y-94017000D01*
X130120000Y-96083000D02*
X130120000Y-96420000D01*
X130120000Y-96420000D02*
X124880000Y-96420000D01*
%TO.C,R2*%
X164230000Y-111630000D02*
X170770000Y-111630000D01*
X164230000Y-111960000D02*
X164230000Y-111630000D01*
X164230000Y-114040000D02*
X164230000Y-114370000D01*
X164230000Y-114370000D02*
X170770000Y-114370000D01*
X170770000Y-111630000D02*
X170770000Y-111960000D01*
X170770000Y-114370000D02*
X170770000Y-114040000D01*
%TO.C,R3*%
X113730000Y-84130000D02*
X120270000Y-84130000D01*
X113730000Y-84460000D02*
X113730000Y-84130000D01*
X113730000Y-86540000D02*
X113730000Y-86870000D01*
X113730000Y-86870000D02*
X120270000Y-86870000D01*
X120270000Y-84130000D02*
X120270000Y-84460000D01*
X120270000Y-86870000D02*
X120270000Y-86540000D01*
%TD*%
M02*
