%TF.GenerationSoftware,KiCad,Pcbnew,10.0.2*%
%TF.CreationDate,2026-06-16T08:53:05+03:00*%
%TF.ProjectId,ATmega32_USART_Serial_Data_Monitor_System_v001,41546d65-6761-4333-925f-55534152545f,v001*%
%TF.SameCoordinates,Original*%
%TF.FileFunction,Soldermask,Top*%
%TF.FilePolarity,Negative*%
%FSLAX46Y46*%
G04 Gerber Fmt 4.6, Leading zero omitted, Abs format (unit mm)*
G04 Created by KiCad (PCBNEW 10.0.2) date 2026-06-16 08:53:05*
%MOMM*%
%LPD*%
G01*
G04 APERTURE LIST*
G04 Aperture macros list*
%AMRoundRect*
0 Rectangle with rounded corners*
0 $1 Rounding radius*
0 $2 $3 $4 $5 $6 $7 $8 $9 X,Y pos of 4 corners*
0 Add a 4 corners polygon primitive as box body*
4,1,4,$2,$3,$4,$5,$6,$7,$8,$9,$2,$3,0*
0 Add four circle primitives for the rounded corners*
1,1,$1+$1,$2,$3*
1,1,$1+$1,$4,$5*
1,1,$1+$1,$6,$7*
1,1,$1+$1,$8,$9*
0 Add four rect primitives between the rounded corners*
20,1,$1+$1,$2,$3,$4,$5,0*
20,1,$1+$1,$4,$5,$6,$7,0*
20,1,$1+$1,$6,$7,$8,$9,0*
20,1,$1+$1,$8,$9,$2,$3,0*%
G04 Aperture macros list end*
%ADD10R,1.800000X1.800000*%
%ADD11C,1.800000*%
%ADD12C,1.500000*%
%ADD13C,1.600000*%
%ADD14C,2.000000*%
%ADD15R,1.700000X1.700000*%
%ADD16C,1.700000*%
%ADD17RoundRect,0.250000X0.550000X-0.550000X0.550000X0.550000X-0.550000X0.550000X-0.550000X-0.550000X0*%
G04 APERTURE END LIST*
D10*
%TO.C,D2*%
X178960000Y-112500000D03*
D11*
X181500000Y-112500000D03*
%TD*%
D12*
%TO.C,Y1*%
X161380000Y-57000000D03*
X156500000Y-57000000D03*
%TD*%
D11*
%TO.C,D1*%
X181000000Y-105000000D03*
D10*
X178460000Y-105000000D03*
%TD*%
D13*
%TO.C,C3*%
X125000000Y-91000000D03*
X130000000Y-91000000D03*
%TD*%
D14*
%TO.C,SW3*%
X111750000Y-49750000D03*
X118250000Y-49750000D03*
X111750000Y-54250000D03*
X118250000Y-54250000D03*
%TD*%
%TO.C,SW5*%
X111750000Y-66850000D03*
X118250000Y-66850000D03*
X111750000Y-71350000D03*
X118250000Y-71350000D03*
%TD*%
%TO.C,SW4*%
X111750000Y-58300000D03*
X118250000Y-58300000D03*
X111750000Y-62800000D03*
X118250000Y-62800000D03*
%TD*%
D15*
%TO.C,J1*%
X110500000Y-103420000D03*
D16*
X110500000Y-105960000D03*
X110500000Y-108500000D03*
X110500000Y-111040000D03*
%TD*%
D13*
%TO.C,C1*%
X140000000Y-57000000D03*
X145000000Y-57000000D03*
%TD*%
D17*
%TO.C,U1*%
X129980000Y-82740000D03*
D13*
X132520000Y-82740000D03*
X135060000Y-82740000D03*
X137600000Y-82740000D03*
X140140000Y-82740000D03*
X142680000Y-82740000D03*
X145220000Y-82740000D03*
X147760000Y-82740000D03*
X150300000Y-82740000D03*
X152840000Y-82740000D03*
X155380000Y-82740000D03*
X157920000Y-82740000D03*
X160460000Y-82740000D03*
X163000000Y-82740000D03*
X165540000Y-82740000D03*
X168080000Y-82740000D03*
X170620000Y-82740000D03*
X173160000Y-82740000D03*
X175700000Y-82740000D03*
X178240000Y-82740000D03*
X178240000Y-67500000D03*
X175700000Y-67500000D03*
X173160000Y-67500000D03*
X170620000Y-67500000D03*
X168080000Y-67500000D03*
X165540000Y-67500000D03*
X163000000Y-67500000D03*
X160460000Y-67500000D03*
X157920000Y-67500000D03*
X155380000Y-67500000D03*
X152840000Y-67500000D03*
X150300000Y-67500000D03*
X147760000Y-67500000D03*
X145220000Y-67500000D03*
X142680000Y-67500000D03*
X140140000Y-67500000D03*
X137600000Y-67500000D03*
X135060000Y-67500000D03*
X132520000Y-67500000D03*
X129980000Y-67500000D03*
%TD*%
%TO.C,C2*%
X172000000Y-56000000D03*
X177000000Y-56000000D03*
%TD*%
%TO.C,R1*%
X163000000Y-106500000D03*
X170620000Y-106500000D03*
%TD*%
D14*
%TO.C,SW1*%
X111500000Y-33000000D03*
X118000000Y-33000000D03*
X111500000Y-37500000D03*
X118000000Y-37500000D03*
%TD*%
%TO.C,SW2*%
X111750000Y-41200000D03*
X118250000Y-41200000D03*
X111750000Y-45700000D03*
X118250000Y-45700000D03*
%TD*%
D13*
%TO.C,C4*%
X125000000Y-95050000D03*
X130000000Y-95050000D03*
%TD*%
%TO.C,R2*%
X163690000Y-113000000D03*
X171310000Y-113000000D03*
%TD*%
%TO.C,R3*%
X113190000Y-85500000D03*
X120810000Y-85500000D03*
%TD*%
M02*
